<?xml version="1.0" standalone="no"?>
<!DOCTYPE svg PUBLIC "-//W3C//DTD SVG 20010904//EN"
 "http://www.w3.org/TR/2001/REC-SVG-20010904/DTD/svg10.dtd">
<svg version="1.0" xmlns="http://www.w3.org/2000/svg"
 width="576.000000pt" height="576.000000pt" viewBox="0 0 576.000000 576.000000"
 preserveAspectRatio="xMidYMid meet">
<metadata>
Created by potrace 1.14, written by Peter Selinger 2001-2017
</metadata>
<g transform="translate(0.000000,576.000000) scale(0.100000,-0.100000)"
fill="#fea55f" stroke="none">
<path d="M2047 5423 c-107 -40 -187 -144 -204 -268 -8 -52 -2 -102 21 -177 8
-27 13 -48 10 -48 -3 0 0 -8 5 -19 6 -10 13 -33 16 -51 3 -17 17 -75 31 -128
14 -54 27 -108 30 -122 3 -14 21 -84 39 -157 19 -72 36 -142 39 -155 2 -13 7
-30 10 -38 3 -8 7 -26 10 -40 2 -14 16 -70 31 -125 14 -55 28 -110 31 -123 2
-12 38 -156 79 -320 42 -163 77 -306 79 -317 2 -11 9 -32 15 -47 6 -16 9 -28
6 -28 -2 0 1 -15 6 -32 6 -18 12 -42 14 -53 2 -11 12 -56 23 -99 11 -44 18
-89 16 -100 -12 -67 -69 -105 -137 -90 -51 11 -72 43 -118 184 -24 74 -44 137
-44 140 -1 5 -136 420 -195 600 -15 47 -60 186 -100 310 -39 124 -82 254 -96
290 -53 143 -160 224 -297 224 -40 0 -81 -2 -92 -5 -48 -12 -121 -57 -156 -99
-95 -110 -99 -212 -20 -450 29 -85 54 -159 55 -165 2 -11 127 -397 181 -560
18 -55 66 -201 105 -325 40 -124 96 -297 125 -385 150 -454 189 -583 189 -612
-1 -53 -69 -92 -113 -64 -8 5 -164 158 -346 340 -296 295 -340 334 -398 361
-73 35 -98 41 -177 44 -142 6 -279 -72 -349 -199 -69 -125 -68 -271 4 -399 28
-50 1327 -1352 1431 -1434 133 -106 393 -246 514 -277 8 -2 48 -14 88 -25 176
-51 258 -58 687 -56 220 1 414 5 430 9 17 4 53 12 80 18 48 10 193 53 225 66
8 3 17 7 20 8 113 38 323 163 408 242 15 14 38 35 52 47 40 33 180 199 180
212 0 7 3 14 8 16 32 14 168 313 188 414 1 6 18 69 37 140 20 71 41 149 48
174 7 25 14 50 15 55 2 6 5 19 8 31 2 12 14 54 26 94 12 40 24 81 26 91 6 28
9 38 60 224 25 94 48 179 50 190 2 11 8 31 13 45 6 14 18 54 27 90 9 36 18 72
20 80 9 33 43 159 59 215 9 33 21 76 26 95 5 19 12 43 14 53 3 9 7 25 10 35 2
9 13 49 24 87 38 138 82 300 87 324 3 14 7 28 10 33 3 4 7 18 10 30 6 26 6 27
23 88 7 25 15 53 17 62 5 23 9 37 34 128 11 41 22 82 25 90 2 8 20 75 40 149
43 157 47 195 27 276 -39 159 -159 248 -321 241 -82 -4 -147 -33 -207 -92 -35
-35 -75 -98 -80 -126 -1 -5 -2 -9 -4 -10 -1 -2 -3 -10 -5 -18 -1 -8 -40 -148
-84 -310 -45 -162 -84 -302 -86 -310 -2 -8 -20 -73 -40 -145 -20 -71 -39 -141
-41 -155 -3 -14 -11 -44 -19 -67 -8 -23 -17 -52 -19 -65 -13 -62 -57 -210 -68
-227 -17 -28 -81 -61 -117 -61 -87 0 -149 75 -137 167 5 47 13 86 16 91 3 3 5
11 14 62 10 53 11 59 30 140 3 14 8 36 10 50 2 14 9 43 14 65 6 22 14 54 16
70 3 17 8 41 11 55 4 14 8 34 10 45 6 35 16 78 30 143 8 34 17 77 20 95 3 17
10 48 15 67 5 19 16 69 24 110 8 41 18 86 21 100 3 14 8 36 10 50 2 14 9 45
16 70 10 43 14 61 23 113 2 12 9 40 14 62 6 22 13 54 15 70 3 17 9 48 15 70 6
22 14 54 17 70 3 17 8 46 12 65 7 36 8 120 1 155 -12 63 -98 195 -127 195 -6
0 -11 4 -11 8 0 8 -54 31 -95 41 -11 2 -49 5 -85 5 -118 1 -230 -72 -282 -184
-14 -32 -19 -48 -32 -115 -3 -11 -10 -42 -16 -70 -7 -27 -14 -63 -16 -80 -3
-16 -7 -37 -10 -45 -5 -14 -50 -226 -60 -280 -2 -14 -6 -34 -9 -45 -2 -11 -5
-24 -6 -30 -1 -5 -6 -26 -11 -45 -5 -19 -11 -45 -13 -57 -3 -13 -7 -33 -10
-45 -3 -13 -10 -45 -15 -73 -6 -27 -13 -61 -16 -75 -2 -14 -13 -63 -24 -110
-10 -47 -21 -96 -24 -110 -2 -14 -12 -59 -21 -100 -9 -41 -18 -85 -21 -96 -3
-17 -27 -130 -50 -239 -2 -11 -7 -31 -10 -45 -7 -32 -21 -95 -29 -140 -35
-188 -215 -294 -389 -230 -31 12 -56 25 -56 30 0 5 -8 11 -17 15 -10 3 -33 25
-50 49 -29 37 -44 86 -124 402 -93 370 -96 379 -105 428 -2 16 -7 33 -10 38
-3 5 -7 18 -10 31 -6 34 -12 57 -29 117 -8 30 -17 66 -20 80 -8 40 -13 61 -29
122 -9 32 -18 72 -21 89 -3 18 -9 37 -12 42 -3 6 -7 20 -9 31 -1 12 -14 65
-28 119 -15 55 -28 106 -30 115 -1 10 -8 35 -14 57 -6 22 -13 51 -16 65 -3 14
-12 50 -20 82 -8 31 -17 67 -20 80 -21 102 -82 320 -98 351 -27 55 -105 130
-161 156 -65 31 -175 37 -240 14z"/>
</g>
</svg>
